<svg width="256" height="256" viewBox="0 0 256 256" fill="none" xmlns="http://www.w3.org/2000/svg">
<circle cx="128" cy="128" r="128" fill="url(#paint0_linear)"/>
<path d="M137.655 203.406C134.585 208.727 126.907 208.729 123.834 203.41L56.1231 86.2111C53.0498 80.8914 56.8888 74.2397 63.0325 74.2397L184.338 74.2398C196.691 74.2398 204.361 87.6722 198.081 98.3108L183.352 123.265C177.612 132.991 167.159 138.959 155.865 138.959H109.766C107.066 138.959 105.41 141.917 106.821 144.218C107.449 145.242 108.564 145.867 109.765 145.867H143.219C155.502 145.867 163.181 159.162 157.043 169.801L137.655 203.406Z" fill="white"/>
<path fill-rule="evenodd" clip-rule="evenodd" d="M58.3398 84.9304L126.05 202.13C128.137 205.742 133.352 205.741 135.437 202.127L154.825 168.522C159.979 159.589 153.532 148.427 143.219 148.427H109.766C107.673 148.427 105.732 147.34 104.638 145.556C102.182 141.549 105.065 136.399 109.766 136.399H155.865C166.253 136.399 175.868 130.91 181.148 121.964L195.877 97.0096C201.149 88.0775 194.71 76.7998 184.338 76.7998L63.0325 76.7997C58.8598 76.7997 56.2524 81.3174 58.3398 84.9304ZM123.834 203.41C126.907 208.729 134.585 208.727 137.655 203.406L157.043 169.801C163.181 159.162 155.502 145.867 143.219 145.867H109.766C108.564 145.867 107.449 145.242 106.821 144.218C105.41 141.917 107.066 138.959 109.766 138.959H155.865C167.159 138.959 177.612 132.991 183.352 123.265L198.081 98.3108C204.361 87.6722 196.691 74.2398 184.338 74.2398L63.0325 74.2397C56.8888 74.2397 53.0498 80.8914 56.1231 86.2111L123.834 203.41Z" fill="white"/>
<defs>
<linearGradient id="paint0_linear" x1="-6.15992e-06" y1="-19.866" x2="176.936" y2="255.05" gradientUnits="userSpaceOnUse">
<stop offset="0.046875" stop-color="#03001E"/>
<stop offset="0.40625" stop-color="#7303C0"/>
<stop offset="0.71875" stop-color="#EC38BC"/>
<stop offset="1" stop-color="#FDEFF9"/>
</linearGradient>
</defs>
</svg>
